# xmcd
# 
# Track frame offsets:
#     182
#     13797
#     27390
#     39735
#     53145
#     67895
#     81922
#     92570
#     104872
#     115472
#     125985
#     137577
#     147802
#     161807
#     175212
#     187392
#     199582
#     209787
#     219790
#     232835
# 
# Disc length: 3256
# 
# Revision: 4
# Processed by: cddbd v1.5.2PL0 Copyright (c) Steve Scherf et al.
# Submitted via: fre:ac v1.1beta1pre4
# 
DISCID=310cb614
DTITLE=B. B. King - Heart and Soul
DYEAR=0
DGENRE=
TTITLE0=Lonely And Blue
TTITLE1=Sneakin'Around (With You)
TTITLE2=You Can't Fool My Heart
TTITLE3=Story From My Heart And Soul
TTITLE4=Don't Get Around Much Anymore
TTITLE5=You Know I Love You
TTITLE6=I'm King
TTITLE7=A Lonely Lover's Plea
TTITLE8=My Heart Belongs To You
TTITLE9=Don't Cry Anymore
TTITLE10=Please Accept My Love
TTITLE11=Peace Of Mind
TTITLE12=I Was Blind
TTITLE13=On My Word Of Honour
TTITLE14=I'll Survive
TTITLE15=If I Lost You
TTITLE16=My Reward
TTITLE17=I Am
TTITLE18=I Love You So
TTITLE19=Key To My Kingdom
EXTD=
EXTT0=
EXTT1=
EXTT2=
EXTT3=
EXTT4=
EXTT5=
EXTT6=
EXTT7=
EXTT8=
EXTT9=
EXTT10=
EXTT11=
EXTT12=
EXTT13=
EXTT14=
EXTT15=
EXTT16=
EXTT17=
EXTT18=
EXTT19=
PLAYORDER=
